<svg width="1024" height="1471" viewBox="0 0 1024 1471" fill="none" xmlns="http://www.w3.org/2000/svg">
<g clip-path="url(#clip0_172_23)">
<path d="M503.534 0C342.199 0 214.705 47.9508 128.918 135.861C43.131 223.77 1.04912 349.267 1.04912 498.489C1.04912 560.3 28.5209 679.803 50.9979 750.231C41.6325 758.222 32.1422 763.342 23.0266 777.203C7.66733 800.679 -3.57113 833.52 1.04912 873.104C14.5353 987.362 86.2118 1028.2 109.937 1039.93C119.053 1093.38 146.65 1159.31 191.853 1226.74C240.304 1299.04 307.235 1368.47 388.652 1407.56C390.15 1408.31 391.149 1409.8 392.648 1410.55C421.992 1445.64 463.45 1470.49 512.525 1470.49C561.599 1470.49 603.057 1445.64 632.402 1410.55C633.9 1409.8 634.899 1408.31 636.398 1407.56C717.564 1368.35 783.122 1299.04 831.198 1226.74C875.902 1159.44 902.999 1093.13 912.115 1039.93C935.591 1028.82 1009.39 989.111 1023 874.103C1027.62 834.394 1015.51 800.804 1000.02 777.203C990.784 763.217 981.419 758.347 972.053 750.231C994.53 678.929 1024 568.542 1024 447.541C1024 391.973 1012.64 315.926 975.05 249.744C939.711 187.558 875.777 136.11 785.245 129.867C744.162 67.5557 655.378 0 503.534 0ZM503.534 63.9344C647.261 63.9344 716.066 130.491 740.291 174.821C745.785 185.185 756.524 191.678 768.262 191.803C846.307 191.803 889.388 229.515 919.108 281.711C948.827 333.908 960.066 401.463 960.066 447.541C960.066 566.044 927.849 682.675 906.121 749.232C901.75 763.342 907.495 778.576 920.107 786.194C925.601 789.565 938.213 799.555 947.079 813.166C955.945 826.777 961.939 843.135 959.067 867.111C946.829 970.13 875.153 989.985 875.153 989.985C863.165 993.856 854.549 1004.47 853.175 1016.96C849.429 1052.3 822.706 1123.97 778.252 1190.78C733.798 1257.59 672.735 1321.27 605.429 1352.61C600.185 1354.99 595.689 1358.86 592.443 1363.6C575.21 1389.33 545.99 1406.56 512.525 1406.56C479.059 1406.56 449.839 1389.33 432.607 1363.6C429.36 1358.86 424.865 1354.99 419.62 1352.61C352.064 1321.27 290.627 1257.59 245.798 1190.78C200.969 1123.97 173.497 1052.17 169.876 1016.96C168.378 1005.09 160.261 994.979 148.898 990.984C148.898 990.984 77.0961 969.381 64.9836 866.112C62.1115 842.011 68.2302 825.403 76.9713 812.167C85.7123 798.931 97.2005 789.815 102.945 786.194C116.056 778.452 121.925 762.593 116.93 748.233C97.5751 692.415 64.9836 539.447 64.9836 498.489C64.9836 361.254 102.945 253.49 174.871 179.816C246.797 106.141 354.686 63.9344 503.534 63.9344ZM746.285 307.684C745.286 307.934 744.287 308.309 743.288 308.683C742.664 308.933 741.914 309.308 741.29 309.682C738.793 310.432 736.545 311.431 734.297 312.679C733.673 312.929 732.924 313.304 732.299 313.678C732.299 314.053 732.299 314.303 732.299 314.677C731.3 315.302 730.301 315.926 729.302 316.675C728.553 317.3 727.929 317.924 727.304 318.673C726.93 319.298 726.555 320.047 726.305 320.671C724.807 322.544 723.433 324.542 722.309 326.665V327.664C721.935 328.288 721.56 329.038 721.31 329.662C718.688 334.657 706.076 356.884 672.361 384.606C634.649 415.574 574.711 447.541 480.557 447.541C420.619 447.541 345.446 448.04 280.762 471.516C248.42 483.254 218.201 501.361 195.849 529.457C173.497 557.553 160.885 594.89 160.885 639.344C160.76 650.832 166.754 661.571 176.744 667.44C186.734 673.185 198.971 673.185 208.961 667.44C218.951 661.571 224.945 650.832 224.82 639.344C224.82 606.503 232.811 585.774 245.798 569.416C258.785 553.058 278.015 540.446 302.74 531.455C352.189 513.598 421.618 511.475 480.557 511.475C589.446 511.475 665.992 473.514 713.319 434.554C729.177 421.568 741.165 408.581 751.28 396.593C782.248 446.417 832.197 540.446 832.197 639.344C832.072 650.832 838.066 661.571 848.055 667.44C858.045 673.185 870.283 673.185 880.272 667.44C890.262 661.571 896.256 650.832 896.131 639.344C896.131 480.507 799.98 350.391 783.247 328.663C783.247 328.288 783.247 328.039 783.247 327.664C782.498 326.665 780.625 323.044 780.25 322.669C779.626 321.92 779.001 321.295 778.252 320.671L777.253 319.672C777.003 319.048 776.629 318.299 776.254 317.674C775.879 317.674 775.63 317.674 775.255 317.674C772.758 314.802 769.636 312.43 766.264 310.681C765.89 310.307 765.64 310.057 765.265 309.682C764.641 309.308 763.892 308.933 763.267 308.683C762.893 308.683 762.643 308.683 762.268 308.683C761.644 308.309 760.895 307.934 760.27 307.684C759.646 307.684 758.897 307.684 758.273 307.684C757.898 307.684 757.648 307.684 757.274 307.684C756.649 307.684 755.9 307.684 755.276 307.684C754.901 307.684 754.651 307.684 754.277 307.684C753.652 307.684 752.903 307.684 752.279 307.684C751.904 307.684 751.654 307.684 751.28 307.684C750.655 307.684 749.906 307.684 749.282 307.684C748.283 307.684 747.284 307.684 746.285 307.684ZM336.705 799.18C310.232 799.18 288.754 820.658 288.754 847.131C288.754 873.604 310.232 895.082 336.705 895.082C363.178 895.082 384.656 873.604 384.656 847.131C384.656 820.658 363.178 799.18 336.705 799.18ZM688.344 799.18C661.871 799.18 640.393 820.658 640.393 847.131C640.393 873.604 661.871 895.082 688.344 895.082C714.817 895.082 736.295 873.604 736.295 847.131C736.295 820.658 714.817 799.18 688.344 799.18Z" fill="white" fill-opacity="0.8"/>
</g>
<defs>
<clipPath id="clip0_172_23">
<rect width="1024" height="1471" fill="white"/>
</clipPath>
</defs>
</svg>
