<svg width="800" height="800" viewBox="0 0 800 800" fill="none" xmlns="http://www.w3.org/2000/svg">
<g clip-path="url(#clip0_171_11)">
<path d="M798.533 375.433C785.933 166.9 613.433 1.63338 402.033 0.300049H397.3C322.633 0.833382 252.767 21.6334 193.133 57.7667C138.024 91.0946 91.752 137.206 58.2333 192.2C15.6619 262.046 -4.37877 343.303 0.833256 424.933C4.70758 489.715 24.4294 552.555 58.2666 607.933C91.5999 662.867 137.733 708.933 192.4 742.367C254.156 779.383 324.701 799.181 396.7 799.7H402.7C614.133 798.267 785.933 633.367 799 425.033C799.467 417.033 800 408.533 800 400.567C800 392.6 800 384.067 799.467 376.1L798.567 375.367L798.533 375.433ZM400.033 521.433V649.067C403.233 727.067 381.033 740.067 354.367 741.267C353.233 741.267 352.167 741.367 351.033 741.4C260.766 728.476 179.291 680.331 124.427 607.496C69.5623 534.66 45.7747 443.061 58.2666 352.733C68.5191 278.655 102.578 209.918 155.309 156.887C208.039 103.856 276.581 69.4069 350.6 58.7334L354.4 59.0667C381.067 60.5 403.233 73.4 400.067 151.2V278.8C399.733 331.233 429.9 381.2 461.967 400.133C429.9 418.8 399.7 462.6 400.033 521.233V521.433Z" fill="white" fill-opacity="0.8"/>
</g>
<defs>
<clipPath id="clip0_171_11">
<rect width="800" height="800" fill="white"/>
</clipPath>
</defs>
</svg>
