<svg width="800" height="800" viewBox="0 0 800 800" fill="none" xmlns="http://www.w3.org/2000/svg">
<path d="M733.333 260.333V416.667H597.333C593.333 416.333 584.666 411.333 582.666 407.667L548 342C534.333 316 510.667 301.333 485.333 302.667C460 304 438.333 321 427.333 348.667L381.333 464L374.666 446.667C358.333 404.333 311.666 372.333 265.666 372.333L66.6665 373.333V260.333C66.6665 139 139 66.6666 260.333 66.6666H539.667C661 66.6666 733.333 139 733.333 260.333Z" fill="white" fill-opacity="0.8"/>
<path d="M733.333 539.623V466.623H597.333C575 466.623 548.666 450.623 538.333 430.957L503.666 365.29C494.333 347.623 481 348.623 473.666 366.957L397 560.623C388.666 582.29 374.666 582.29 366 560.623L328 464.623C319 441.29 291 422.29 266 422.29L66.6665 423.29V539.623C66.6665 658.957 136.667 730.957 254.333 732.957C258 733.29 262 733.29 265.666 733.29H532.333C537.333 733.29 542.333 733.29 547 732.957C664 730.29 733.333 658.623 733.333 539.623Z" fill="white" fill-opacity="0.8"/>
<path d="M66.6899 423.307V533.64C66.0233 522.973 65.6899 511.64 65.6899 499.973V423.307H66.6899Z" fill="white" fill-opacity="0.8"/>
</svg>
