<svg width="800" height="800" viewBox="0 0 800 800" fill="none" xmlns="http://www.w3.org/2000/svg">
<g clip-path="url(#clip0_171_17)">
<path d="M304.392 252.131C298.975 255.088 294.097 261.903 300.55 277.647C308.805 297.834 307.68 320.602 325.21 320.602C333.869 365.298 337.606 363.888 347.856 375.28C347.856 388.923 347.856 384.961 347.856 392.916C347.856 415.714 340.113 416.105 322.478 425.98C279.958 449.725 249.969 454.813 241.489 518.345C239.944 529.977 306.644 542.63 399.999 542.691C493.369 542.631 560.055 529.977 558.524 518.345C550.042 454.813 519.56 451.586 477.533 425.98C458.863 414.559 452.155 415.714 452.155 392.916C452.155 384.961 452.155 388.922 452.155 375.28C462.406 363.888 466.127 365.298 474.803 320.602C492.333 320.602 491.192 297.834 499.463 277.647C506.203 261.166 500.56 254.502 494.885 251.772C499.538 191.841 499.538 150.522 431.458 137.719C406.799 116.57 369.591 123.745 351.955 127.272C334.32 130.828 318.441 127.272 318.441 127.272L321.442 155.684C295.642 186.663 308.566 227.967 304.392 252.131Z" fill="white" fill-opacity="0.8"/>
<path d="M769.1 469.656C761.747 471.967 752.756 475.134 743.256 476.697C739.203 477.372 735.076 477.747 730.948 477.717C731.083 477.267 731.219 476.817 731.354 476.366C734.025 467.284 736.322 457.828 737.958 450.084C739.608 442.355 740.645 436.366 741.064 434.205C742.326 427.886 743.18 423.323 744.622 420.111C746.076 416.883 748.134 414.992 751.6 413.942C765.528 410.55 778.286 401.455 787.215 387.752C796.162 374.139 801.175 355.992 799.765 336.542C798.85 324.325 796.192 319.013 792.636 317.992C789.048 316.972 784.456 320.198 778.783 324.792C773.095 329.4 766.279 335.328 758.461 340.055C755.114 342.095 751.57 343.913 747.879 345.355C747.083 336.948 745.942 328.469 744.801 321.534C743.601 314.136 742.475 308.492 742.115 306.436C739.984 294.398 739.083 289.13 744.592 284.928C755.803 277.214 764.073 264.875 767.422 249.763C770.814 234.708 769.192 216.953 761.523 200.219C756.673 189.713 752.562 185.916 749.064 186.2C745.537 186.47 742.506 190.853 738.964 196.795C735.422 202.769 731.323 210.289 725.936 217.088C723.626 220.016 721.073 222.791 718.283 225.297C715.206 218.978 711.994 212.841 709.156 207.722C705.719 201.508 702.883 196.825 701.922 195.098C696.173 185.027 693.712 180.6 697.314 175.106C704.925 164.659 708.45 151.047 706.8 136.533C705.194 122.05 698.35 106.742 686.448 94.1485C678.944 86.2547 674.126 84.1079 671.079 85.4141C667.987 86.75 666.562 91.5813 665.165 98.0063C663.77 104.431 662.344 112.431 659.583 120.175C658.412 123.463 656.986 126.673 655.275 129.736C651.867 126.313 648.536 123.072 645.55 120.28C640.356 115.417 636.244 111.814 634.787 110.48C626.231 102.659 622.525 99.2079 624.265 92.8735C628.319 80.5969 627.508 66.5469 621.489 53.25C615.533 39.9532 604.304 27.4657 589.1 19.1344C579.525 13.9094 574.272 13.325 571.765 15.5313C569.229 17.736 569.362 22.7813 570.009 29.325C570.625 35.5672 571.661 43.1922 571.526 51.0282C566.362 44.9938 559.308 40.3266 551.383 36.6641C542.108 32.3407 528.225 29.5047 516.233 30.4344C504.211 31.3063 494.32 35.8079 492.008 44.1219C489.667 52.4829 495.279 61.2172 502.889 68.9172C510.573 76.5719 520.329 83.3719 528.181 87.0188C535.189 90.2438 542.153 92.661 549.494 93.1266C549.162 93.3813 548.833 93.636 548.503 93.8922C542.109 98.7407 535.656 102.792 530.717 106.514C525.779 110.206 522.342 113.538 521.786 116.72C521.231 119.917 523.558 122.888 530.131 126.491C540.562 132.209 552.029 134.475 563.931 133.936C575.789 133.35 588.065 129.989 599.022 123.398C604.636 120.353 608.644 123.009 616.494 130.258C617.829 131.489 621.417 135.047 625.859 139.864C628.397 142.611 631.187 145.778 634.04 149.127C631.023 150.552 627.931 151.783 624.854 152.863C617.29 155.505 609.904 157.381 604.067 159.391C598.214 161.403 593.936 163.488 592.419 166.356C590.919 169.238 592.223 172.794 597.387 178.228C605.583 186.905 615.803 192.577 627.286 195.714C638.753 198.806 651.479 199.347 663.923 196.434C670.212 195.25 673.198 199.002 678.436 208.308C679.336 209.898 681.664 214.386 684.409 220.314C686.676 225.222 689.212 231.152 691.569 237.184C687.786 237.68 683.99 237.859 680.267 237.903C671.847 238.009 663.862 237.408 657.362 237.469C650.879 237.528 645.895 238.205 643.434 240.531C640.956 242.889 641.031 246.82 644.289 253.891C649.437 265.116 657.603 274.092 667.883 281.072C678.179 287.991 690.606 292.928 703.965 294.384C710.614 295.42 712.265 300.178 714.17 311.225C714.486 313.102 715.206 318.355 715.808 325.198C716.378 331.623 716.812 339.427 716.917 347.127C713.09 346.211 709.367 345.025 705.779 343.734C697.436 340.733 689.765 337.22 683.342 334.938C676.933 332.627 671.769 331.486 668.483 332.881C665.179 334.277 663.8 338.134 664.398 346.225C665.329 359.058 670.026 370.9 677.578 381.527C685.128 392.108 695.514 401.564 708.106 408.002C711.198 409.758 712.683 411.934 713.12 415.147C713.57 418.359 712.984 422.561 711.798 428.341C711.408 430.306 710.133 435.723 708.106 442.644C706.109 449.563 703.348 457.969 700.272 465.969C700.108 466.375 699.956 466.766 699.806 467.155C696.459 464.783 693.339 462.186 690.351 459.559C683.387 453.361 677.264 446.967 671.876 442.253C666.489 437.525 661.895 434.419 658.142 434.48C654.344 434.539 651.523 437.736 648.986 445.72C644.905 458.388 644.889 471.508 647.997 484.773C651.133 497.983 657.406 511.325 667.026 522.686C671.573 528.584 669.278 533.658 662.329 543.878C661.144 545.619 657.676 550.333 652.889 556.202C648.117 562.055 641.962 569.034 635.673 575.488C634.667 576.538 633.648 577.559 632.64 578.566C630.464 574.903 628.544 571.12 626.801 567.369C622.704 558.453 619.508 549.733 616.281 542.919C613.084 536.091 609.931 531.183 606.3 529.638C602.637 528.106 598.584 529.938 592.822 536.497C583.606 546.853 578.098 559.372 575.472 573.403C572.904 587.361 573.22 602.866 577.528 617.906C579.359 625.53 574.961 629.388 563.869 636.142C561.978 637.283 556.619 640.284 549.49 643.78C542.361 647.294 533.445 651.225 524.62 654.572C515.795 657.964 503.758 663.142 497.348 665.394C413.854 694.738 313.353 707.403 251.126 753.138C241.429 760.266 260.701 787.703 269.211 785.57C277.722 783.455 338.884 746.758 491.99 704.883C498.412 702.617 529.497 692.486 538.998 687.939C548.529 683.406 558.059 678.242 565.653 673.814C573.248 669.372 578.937 665.695 581.037 664.434C587.147 660.683 591.515 657.934 595.251 656.691C598.973 655.431 602.065 655.655 605.547 657.681C612.211 662.034 619.79 665.066 627.986 666.581C636.181 668.083 645.006 668.053 653.997 666.372C662.972 664.675 672.14 661.328 680.878 656.284C689.628 651.256 697.973 644.547 705.251 636.338C714.408 625.966 716.583 619.633 714.633 616.03C712.667 612.383 706.514 611.302 698.439 610.416C690.348 609.561 680.323 608.825 670.508 606.319C666.365 605.269 662.269 603.903 658.351 602.148C659.387 600.933 660.408 599.702 661.428 598.455C667.79 590.755 673.945 582.547 678.734 575.731C683.522 568.903 686.989 563.498 688.294 561.578C695.873 550.291 699.175 545.353 706.831 546.18C721.734 548.552 737.854 544.842 752.128 535.013C759.242 530.106 765.878 523.697 771.506 516.013C777.15 508.342 781.787 499.367 784.969 489.506C788.931 477.078 788.39 470.775 785.328 468.388C782.219 465.98 776.456 467.345 769.1 469.656Z" fill="white" fill-opacity="0.8"/>
<path d="M307.378 704.667C326.636 697.222 346.972 690.905 367.58 685.034C345.442 679 323.514 672.713 302.651 665.388C296.242 663.136 284.206 657.958 275.381 654.566C266.556 651.219 257.641 647.288 250.512 643.774C243.383 640.277 238.025 637.275 236.133 636.136C225.041 629.381 220.644 625.523 222.475 617.9C226.783 602.859 227.097 587.355 224.531 573.397C221.905 559.366 216.397 546.847 207.181 536.491C201.419 529.931 197.366 528.1 193.705 529.631C190.07 531.177 186.92 536.084 183.722 542.913C180.495 549.727 177.284 558.447 173.201 567.363C171.461 571.114 169.539 574.897 167.362 578.559C166.356 577.553 165.337 576.531 164.33 575.481C158.041 569.028 151.889 562.048 147.114 556.195C142.326 550.327 138.859 545.614 137.673 543.872C130.723 533.652 128.412 528.578 132.975 522.68C142.597 511.319 148.87 497.975 152.006 484.767C155.112 471.502 155.097 458.381 151.014 445.714C148.478 437.73 145.656 434.533 141.859 434.473C138.108 434.414 133.514 437.52 128.126 442.247C122.739 446.961 116.614 453.353 109.65 459.553C106.664 462.18 103.542 464.777 100.195 467.148C100.045 466.758 99.8937 466.367 99.7452 465.963C96.653 457.963 93.8921 449.558 91.8952 442.638C89.8702 435.719 88.5937 430.3 88.2046 428.334C87.0202 422.556 86.4343 418.353 86.8843 415.141C87.3187 411.928 88.8062 409.753 91.8968 407.995C104.491 401.558 114.876 392.102 122.441 381.52C129.975 370.894 134.687 359.052 135.603 346.219C136.219 338.128 134.822 334.27 131.522 332.875C128.234 331.48 123.072 332.62 116.662 334.931C110.237 337.214 102.569 340.725 94.239 343.728C90.6358 345.019 86.914 346.203 83.0874 347.12C83.2077 339.42 83.628 331.616 84.1983 325.192C84.7983 318.348 85.5187 313.095 85.8327 311.219C87.739 300.173 89.3905 295.414 96.039 294.378C109.397 292.922 121.823 287.984 132.12 281.066C142.401 274.086 150.567 265.111 155.716 253.884C158.972 246.814 159.047 242.883 156.57 240.525C154.109 238.2 149.126 237.523 142.642 237.463C136.142 237.403 128.158 238.003 119.739 237.897C116.017 237.853 112.219 237.672 108.436 237.178C110.792 231.144 113.33 225.216 115.595 220.308C118.342 214.38 120.669 209.892 121.57 208.302C126.808 198.995 129.795 195.244 136.083 196.428C148.525 199.341 161.253 198.8 172.72 195.708C184.203 192.57 194.423 186.898 202.619 178.222C207.783 172.789 209.087 169.233 207.587 166.35C206.07 163.483 201.794 161.397 195.941 159.384C190.101 157.373 182.717 155.497 175.151 152.856C172.075 151.775 168.984 150.544 165.967 149.12C168.817 145.773 171.611 142.605 174.162 139.858C178.591 135.042 182.178 131.483 183.512 130.252C191.361 123.003 195.369 120.347 200.983 123.392C211.939 129.983 224.217 133.344 236.073 133.93C247.975 134.469 259.442 132.203 269.873 126.484C276.448 122.881 278.773 119.911 278.219 116.714C277.664 113.531 274.225 110.198 269.287 106.508C264.35 102.786 257.897 98.7344 251.503 93.886C251.172 93.6297 250.842 93.375 250.512 93.1203C257.851 92.6547 264.816 90.2391 271.825 87.0125C279.675 83.3657 289.431 76.5657 297.116 68.911C304.725 61.211 310.337 52.4766 308.012 44.1157C305.686 35.8 295.794 31.2985 283.772 30.4282C271.78 29.4985 257.897 32.3344 248.62 36.6578C240.695 40.3203 233.642 44.9875 228.48 51.0219C228.345 43.1875 229.38 35.5625 229.995 29.3188C230.641 22.775 230.776 17.7297 228.239 15.525C225.733 13.3172 220.48 13.9032 210.905 19.1282C195.7 27.4578 184.475 39.9453 178.516 53.2438C172.497 66.5407 171.686 80.5907 175.737 92.8672C177.478 99.2016 173.772 102.653 165.216 110.473C163.761 111.808 159.647 115.411 154.456 120.273C151.469 123.066 148.137 126.308 144.73 129.73C143.019 126.667 141.592 123.456 140.423 120.169C137.661 112.425 136.236 104.425 134.839 98C133.444 91.575 132.017 86.7438 128.925 85.4078C125.878 84.1016 121.061 86.2485 113.556 94.1422C101.655 106.736 94.8093 122.045 93.2046 136.527C91.5546 151.042 95.0812 164.655 102.691 175.1C106.294 180.594 103.831 185.02 98.0827 195.092C97.1218 196.819 94.2843 201.502 90.8483 207.716C88.0108 212.834 84.7983 218.972 81.7218 225.291C78.9312 222.784 76.3796 220.008 74.0687 217.081C68.6796 210.283 64.5827 202.763 61.0405 196.789C57.4999 190.845 54.4671 186.464 50.9405 186.194C47.4437 185.908 43.3312 189.706 38.4983 200.213C30.814 216.948 29.1937 234.703 32.5858 249.756C35.9312 264.87 44.2015 277.209 55.414 284.922C60.9218 289.123 60.0218 294.392 57.8765 306.43C57.5296 308.486 56.4046 314.13 55.189 321.528C54.0624 328.463 52.9218 336.944 52.1265 345.348C48.4343 343.906 44.8921 342.091 41.5312 340.048C33.7265 335.32 26.9124 329.392 21.2249 324.786C15.5515 320.192 10.9577 316.966 7.37179 317.986C3.81554 319.006 1.15772 324.32 0.243661 336.536C-1.16728 355.988 3.84522 374.133 12.7905 387.745C21.7202 401.448 34.478 410.544 48.4077 413.936C51.8734 414.988 53.9296 416.878 55.3874 420.105C56.828 423.317 57.6827 427.88 58.9437 434.198C59.364 436.359 60.3983 442.348 62.0515 450.078C63.6874 457.822 65.9827 467.278 68.6546 476.359C68.7905 476.809 68.9249 477.259 69.0608 477.711C64.9343 477.739 60.8062 477.364 56.753 476.691C47.253 475.128 38.2624 471.961 30.9077 469.65C23.5546 467.341 17.7905 465.973 14.6827 468.375C11.6202 470.763 11.0796 477.066 15.0437 489.494C18.2249 499.355 22.864 508.328 28.5062 516C34.1343 523.684 40.7687 530.094 47.8843 535C62.1577 544.831 78.2765 548.539 93.1796 546.167C100.836 545.341 104.136 550.278 111.717 561.566C113.023 563.488 116.489 568.891 121.278 575.719C126.066 582.534 132.219 590.742 138.583 598.442C139.605 599.689 140.625 600.92 141.659 602.136C137.744 603.891 133.645 605.258 129.503 606.306C119.687 608.813 109.661 609.55 101.572 610.403C93.4983 611.291 87.3437 612.37 85.3765 616.017C83.4265 619.62 85.603 625.953 94.7577 636.325C102.037 644.534 110.383 651.244 119.133 656.272C127.869 661.314 137.039 664.663 146.014 666.359C155.005 668.039 163.83 668.07 172.025 666.569C180.22 665.053 187.8 662.022 194.464 657.669C197.947 655.644 201.037 655.419 204.759 656.678C208.497 657.923 212.866 660.672 218.973 664.422C221.073 665.683 226.764 669.359 234.358 673.802C241.951 678.23 251.483 683.394 261.014 687.927C270.217 692.344 299.784 702.027 307.378 704.667Z" fill="white" fill-opacity="0.8"/>
<path d="M491.764 722.588C467.734 729.222 446.047 735.734 426.52 741.98C494.406 766.428 524.964 784.109 530.787 785.564C539.297 787.695 558.568 760.259 548.859 753.131C532.228 740.898 512.837 731.053 491.764 722.588Z" fill="white" fill-opacity="0.8"/>
</g>
<defs>
<clipPath id="clip0_171_17">
<rect width="800" height="800" fill="white"/>
</clipPath>
</defs>
</svg>
